<svg width="32" height="32" viewBox="0 0 32 32" fill="none" xmlns="http://www.w3.org/2000/svg">
<circle cx="16" cy="16" r="16" fill="white"/>
<g clip-path="url(#clip0_2_2)">
<path d="M18.5 16.5C18.5 17.163 18.2366 17.7989 17.7678 18.2678C17.2989 18.7366 16.663 19 16 19C15.337 19 14.7011 18.7366 14.2322 18.2678C13.7634 17.7989 13.5 17.163 13.5 16.5C13.5 15.837 13.7634 15.2011 14.2322 14.7322C14.7011 14.2634 15.337 14 16 14C16.663 14 17.2989 14.2634 17.7678 14.7322C18.2366 15.2011 18.5 15.837 18.5 16.5V16.5Z" fill="black"/>
<path d="M10 12C9.46957 12 8.96086 12.2107 8.58579 12.5858C8.21071 12.9609 8 13.4696 8 14V20C8 20.5304 8.21071 21.0391 8.58579 21.4142C8.96086 21.7893 9.46957 22 10 22H22C22.5304 22 23.0391 21.7893 23.4142 21.4142C23.7893 21.0391 24 20.5304 24 20V14C24 13.4696 23.7893 12.9609 23.4142 12.5858C23.0391 12.2107 22.5304 12 22 12H20.828C20.2976 11.9999 19.789 11.7891 19.414 11.414L18.586 10.586C18.211 10.2109 17.7024 10.0001 17.172 10H14.828C14.2976 10.0001 13.789 10.2109 13.414 10.586L12.586 11.414C12.211 11.7891 11.7024 11.9999 11.172 12H10ZM10.5 14C10.3674 14 10.2402 13.9473 10.1464 13.8536C10.0527 13.7598 10 13.6326 10 13.5C10 13.3674 10.0527 13.2402 10.1464 13.1464C10.2402 13.0527 10.3674 13 10.5 13C10.6326 13 10.7598 13.0527 10.8536 13.1464C10.9473 13.2402 11 13.3674 11 13.5C11 13.6326 10.9473 13.7598 10.8536 13.8536C10.7598 13.9473 10.6326 14 10.5 14ZM19.5 16.5C19.5 17.4283 19.1313 18.3185 18.4749 18.9749C17.8185 19.6313 16.9283 20 16 20C15.0717 20 14.1815 19.6313 13.5251 18.9749C12.8687 18.3185 12.5 17.4283 12.5 16.5C12.5 15.5717 12.8687 14.6815 13.5251 14.0251C14.1815 13.3687 15.0717 13 16 13C16.9283 13 17.8185 13.3687 18.4749 14.0251C19.1313 14.6815 19.5 15.5717 19.5 16.5V16.5Z" fill="black"/>
</g>
<defs>
<clipPath id="clip0_2_2">
<rect width="16" height="16" fill="white" transform="translate(8 8)"/>
</clipPath>
</defs>
</svg>
