<svg width="32" height="33" fill="none" xmlns="http://www.w3.org/2000/svg"><g clip-path="url(#a)"><path d="M32 16.727c0-8.836-7.163-16-16-16s-16 7.164-16 16c0 7.986 5.85 14.606 13.5 15.806v-11.18H9.437v-4.626H13.5v-3.524c0-4.01 2.389-6.225 6.043-6.225 1.75 0 3.582.312 3.582.312v3.937h-2.017c-1.988 0-2.608 1.234-2.608 2.5v3h4.438l-.71 4.625H18.5v11.181c7.65-1.2 13.5-7.82 13.5-15.806Z" fill="#fff"/></g><defs><clipPath id="a"><path fill="#fff" transform="translate(0 .728)" d="M0 0h32v32H0z"/></clipPath></defs></svg>