<svg width="24" height="24" viewBox="0 0 24 24" fill="none" xmlns="http://www.w3.org/2000/svg">
<path d="M12 0.800293C7.80003 0.800293 3.99963 4.01989 3.99963 8.99989C3.99963 12.1799 6.45003 15.9203 11.34 20.2295C11.5248 20.3889 11.7608 20.4767 12.0048 20.4767C12.2489 20.4767 12.4848 20.3889 12.6696 20.2295C17.55 15.9203 20.0004 12.1799 20.0004 8.99989C20.0004 4.01989 16.2 0.800293 12 0.800293ZM12 10.7999C10.8996 10.7999 9.99963 9.89989 9.99963 8.79949C9.99963 7.69909 10.8996 6.79909 12 6.79909C13.1004 6.79909 14.0004 7.69909 14.0004 8.79949C14.0004 9.89989 13.1004 10.7999 12 10.7999Z" fill="white"/>
</svg>
