<svg width="18" height="20" viewBox="0 0 18 20" fill="none" xmlns="http://www.w3.org/2000/svg">
<path d="M3.62 9.10889C5.06 12.0998 7.38 14.5411 10.21 16.0736L12.41 13.7485C12.68 13.4631 13.08 13.368 13.43 13.4948C14.55 13.8859 15.76 14.0972 17 14.0972C17.55 14.0972 18 14.5728 18 15.1541V18.8425C18 19.4238 17.55 19.8994 17 19.8994C7.61 19.8994 0 11.8567 0 1.93283C0 1.35156 0.45 0.875977 1 0.875977H4.5C5.05 0.875977 5.5 1.35156 5.5 1.93283C5.5 3.2539 5.7 4.52213 6.07 5.70581C6.18 6.07571 6.1 6.48788 5.82 6.7838L3.62 9.10889Z" fill="black"/>
</svg>
