<svg width="132" height="29" fill="none" xmlns="http://www.w3.org/2000/svg"><path d="M8.944 28.252c-1.68 0-3.192-.288-4.536-.864-1.344-.6-2.4-1.44-3.168-2.52-.768-1.08-1.152-2.34-1.152-3.78H4.48c.096 1.08.516 1.968 1.26 2.664.768.696 1.836 1.044 3.204 1.044 1.416 0 2.52-.336 3.312-1.008.792-.696 1.188-1.584 1.188-2.664 0-.84-.252-1.524-.756-2.052-.48-.528-1.092-.936-1.836-1.224-.72-.288-1.728-.6-3.024-.936-1.632-.432-2.964-.864-3.996-1.296-1.008-.456-1.872-1.152-2.592-2.088C.52 12.592.16 11.344.16 9.784c0-1.44.36-2.7 1.08-3.78.72-1.08 1.728-1.908 3.024-2.484 1.296-.576 2.796-.864 4.5-.864 2.424 0 4.404.612 5.94 1.836 1.56 1.2 2.424 2.856 2.592 4.968H12.76c-.072-.912-.504-1.692-1.296-2.34-.792-.648-1.836-.972-3.132-.972-1.176 0-2.136.3-2.88.9-.744.6-1.116 1.464-1.116 2.592 0 .768.228 1.404.684 1.908.48.48 1.08.864 1.8 1.152.72.288 1.704.6 2.952.936 1.656.456 3 .912 4.032 1.368 1.056.456 1.944 1.164 2.664 2.124.744.936 1.116 2.196 1.116 3.78 0 1.272-.348 2.472-1.044 3.6-.672 1.128-1.668 2.04-2.988 2.736-1.296.672-2.832 1.008-4.608 1.008ZM24.083 28.252c-.744 0-1.368-.252-1.872-.756s-.756-1.128-.756-1.872c0-.744.252-1.368.756-1.872s1.128-.756 1.872-.756a2.5 2.5 0 0 1 1.836.756c.504.504.756 1.128.756 1.872 0 .744-.252 1.368-.756 1.872a2.5 2.5 0 0 1-1.836.756ZM44.898 28l-9.684-11.196V28H31.11V2.98h4.104v11.412l9.72-11.412h5.148L39.21 15.508 50.262 28h-5.364ZM57.995 1.36V28h-4.104V1.36h4.104ZM62.016 17.992c0-1.992.408-3.756 1.224-5.292.84-1.536 1.968-2.724 3.384-3.564 1.44-.864 3.024-1.296 4.752-1.296 1.56 0 2.916.312 4.068.936 1.176.6 2.112 1.356 2.808 2.268v-2.88h4.14V28h-4.14v-2.952c-.696.936-1.644 1.716-2.844 2.34-1.2.624-2.568.936-4.104.936-1.704 0-3.264-.432-4.68-1.296-1.416-.888-2.544-2.112-3.384-3.672-.816-1.584-1.224-3.372-1.224-5.364Zm16.236.072c0-1.368-.288-2.556-.864-3.564-.552-1.008-1.284-1.776-2.196-2.304a5.792 5.792 0 0 0-2.952-.792c-1.056 0-2.04.264-2.952.792-.912.504-1.656 1.26-2.232 2.268-.552.984-.828 2.16-.828 3.528 0 1.368.276 2.568.828 3.6.576 1.032 1.32 1.824 2.232 2.376.936.528 1.92.792 2.952.792 1.056 0 2.04-.264 2.952-.792.912-.528 1.644-1.296 2.196-2.304.576-1.032.864-2.232.864-3.6ZM96.098 11.512h-3.672V28h-4.14V11.512h-2.34V8.164h2.34V6.76c0-2.28.6-3.936 1.8-4.968C91.31.736 93.218.208 95.81.208v3.42c-1.248 0-2.124.24-2.628.72-.504.456-.756 1.26-.756 2.412v1.404h3.672v3.348ZM117.915 17.596c0 .744-.048 1.416-.144 2.016h-15.156c.12 1.584.708 2.856 1.764 3.816s2.352 1.44 3.888 1.44c2.208 0 3.768-.924 4.68-2.772h4.428c-.6 1.824-1.692 3.324-3.276 4.5-1.56 1.152-3.504 1.728-5.832 1.728-1.896 0-3.6-.42-5.112-1.26-1.488-.864-2.664-2.064-3.528-3.6-.84-1.56-1.26-3.36-1.26-5.4 0-2.04.408-3.828 1.224-5.364.84-1.56 2.004-2.76 3.492-3.6 1.512-.84 3.24-1.26 5.184-1.26 1.872 0 3.54.408 5.004 1.224a8.618 8.618 0 0 1 3.42 3.456c.816 1.464 1.224 3.156 1.224 5.076Zm-4.284-1.296c-.024-1.512-.564-2.724-1.62-3.636-1.056-.912-2.364-1.368-3.924-1.368-1.416 0-2.628.456-3.636 1.368-1.008.888-1.608 2.1-1.8 3.636h10.98ZM126.058 11.044a6.348 6.348 0 0 1 2.376-2.34c1.008-.576 2.196-.864 3.564-.864v4.248h-1.044c-1.608 0-2.832.408-3.672 1.224-.816.816-1.224 2.232-1.224 4.248V28h-4.104V8.164h4.104v2.88Z" fill="#fff"/></svg>